<?xml version="1.0" encoding="UTF-8"?>
<svg id="Layer_2" data-name="Layer 2" xmlns="http://www.w3.org/2000/svg" viewBox="0 0 93.09 93.09">
  <defs>
    <style>
      .cls-1 {
        fill: #fff;
      }

      .cls-2 {
        fill: #af4d04;
      }

      .cls-3 {
        fill: #507849;
      }

      .cls-4 {
        fill: #f98575;
      }

      .cls-5 {
        fill: #f9bf30;
      }

      .cls-6 {
        fill: #e8e1ef;
      }
    </style>
  </defs>
  <path class="cls-6" d="m93.09,6.54v80c0,3.43-2.64,6.25-5.99,6.53-.18.01-.37.02-.55.02H6.55c-.7,0-1.37-.11-2-.32-.17-.04-.33-.1-.49-.17C1.68,91.62,0,89.28,0,86.54V6.54C0,2.93,2.93,0,6.55,0h80c3.61,0,6.54,2.93,6.54,6.54Z"/>
  <path class="cls-3" d="m87.1,93.07c-.18.01-.37.02-.55.02H28.68c.49-18.06.95-32.15.95-32.44s8.07-5.01,18.5-5.13c16.82-.19,33.36,12.58,38.07,30.99l.9,6.56Z"/>
  <path class="cls-2" d="m50.42,28.06s11.2.53,11.83-10.2c.67-11.43-9.9-12.53-14.39-7.91-4.49,4.62-3.66,9.32-3.66,9.32,0,0-3.13-2.82-6.55.64-2.51,2.54-1.21,6.7-1.21,6.7,0,0-5.77-.22-5.24,4.82.54,5.04,4.14,7.6,4.14,7.6l15.07-10.98Z"/>
  <path class="cls-4" d="m40.19,47.83l1.16,11.9s2.48,3.21,9.5,3.09c5.23-.09,6.93-1.44,6.93-1.44l-1.31-5.95-1.29-5.81-12.84-1.53-2.15-.26Z"/>
  <path d="m42.34,48.09c.06.32.22.69.46,1.11,3.24,5.68,10.65,6.25,13.67,6.23l-1.29-5.81-12.84-1.53Z"/>
  <path class="cls-4" d="m55.18,22.25s7.7,14.31,6.05,22.83c-1.65,8.53-9.35,7.84-14.03,6.6-4.68-1.24-7.02-3.85-7.02-3.85,0,0-4.13,1.79-7.29-1.93-3.16-3.71-1.79-8.39.55-9.63,2.34-1.24,5.36.27,5.36.27l-2.61-4.13s7.7-22.7,18.98-10.18Z"/>
  <path d="m38.95,43.04c-.08,0-.17-.02-.25-.07l-5.74-3.33c-.24-.14-.32-.44-.18-.68s.44-.32.68-.18l5.74,3.33c.24.14.32.44.18.68-.09.16-.26.25-.43.25Z"/>
  <path d="m34.06,43.46c-.2,0-.4-.13-.47-.33-.09-.26.04-.55.3-.64l3.44-1.25c.26-.09.55.04.64.3.09.26-.04.55-.3.64l-3.44,1.25c-.06.02-.11.03-.17.03Z"/>
  <path d="m45.78,29.52c-.09,0-.18-.02-.26-.08-.23-.15-.3-.45-.16-.69,1.42-2.26,3.62-2.09,4.59-1.68.25.11.37.4.27.65-.11.25-.4.37-.65.27-.08-.03-2.04-.8-3.35,1.29-.1.15-.26.23-.42.23Z"/>
  <path d="m57.26,27.83c-.1,0-.19-.03-.28-.09-1.34-.9-2.57-.04-2.62,0-.22.16-.53.11-.7-.11-.16-.22-.11-.53.11-.69.07-.05,1.84-1.31,3.77-.01.23.15.29.46.13.69-.1.14-.25.22-.41.22Z"/>
  <path d="m55.67,41.38s-.06,0-.1,0c-.27-.05-.45-.31-.4-.59.86-4.43-1.72-7.35-1.75-7.38-.18-.2-.17-.52.04-.7.2-.19.52-.17.7.03.12.13,2.95,3.3,1.99,8.24-.05.24-.25.4-.49.4Z"/>
  <path d="m57.77,33.56c-.2,0-.39-.12-.47-.32l-1.01-2.66c-.1-.26.03-.55.29-.64.26-.1.55.03.64.29l1.01,2.66c.1.26-.03.55-.29.64-.06.02-.12.03-.18.03Z"/>
  <path d="m50.26,34.44c-.2,0-.39-.12-.47-.32l-1.01-2.66c-.1-.26.03-.55.29-.65.26-.1.55.03.65.29l1.01,2.66c.1.26-.03.55-.29.65-.06.02-.12.03-.18.03Z"/>
  <path class="cls-2" d="m56.76,25.48s-1.53-2.26-4.5-1.99-4.5,2.53-4.5,2.53c0,0,1.79,4.87-1.98,7.92-3.78,3.05-6.97,2.61-6.97,2.61l-3.03-.76-2.57-4.07,7.58-9.95,10.39-6.86,6.08,4.52-.51,6.04Z"/>
  <path d="m53.22,44.43c-1.19,0-2.89-.44-3.9-2.13-.14-.24-.06-.54.17-.68.24-.14.54-.06.68.17,1.2,2.02,3.51,1.61,3.61,1.59.27-.05.53.13.58.4.05.27-.12.53-.39.58-.21.04-.47.07-.76.07Z"/>
  <path class="cls-1" d="m60.86,39.14c-2.53,0-4.6-2.33-4.6-5.2s2.06-5.2,4.6-5.2,4.6,2.33,4.6,5.2-2.06,5.2-4.6,5.2Zm0-9.41c-1.98,0-3.6,1.89-3.6,4.2s1.61,4.2,3.6,4.2,3.6-1.89,3.6-4.2-1.61-4.2-3.6-4.2Z"/>
  <path class="cls-1" d="m49.4,40.31c-2.87,0-5.2-2.33-5.2-5.2s2.33-5.2,5.2-5.2,5.2,2.33,5.2,5.2-2.33,5.2-5.2,5.2Zm0-9.41c-2.32,0-4.2,1.89-4.2,4.2s1.89,4.2,4.2,4.2,4.2-1.89,4.2-4.2-1.89-4.2-4.2-4.2Z"/>
  <path class="cls-1" d="m56.76,34.44h-2.88c-.28,0-.5-.22-.5-.5s.22-.5.5-.5h2.88c.28,0,.5.22.5.5s-.22.5-.5.5Z"/>
  <path class="cls-1" d="m35.78,36.3c-.2,0-.38-.12-.46-.31-.1-.26.02-.55.28-.65,3.48-1.4,8.94-.75,9.17-.72.27.03.47.28.43.56-.03.27-.29.48-.56.43-.05,0-5.43-.65-8.67.66-.06.02-.12.04-.19.04Z"/>
  <path class="cls-5" d="m50.99,62.9c-3.36,0-7.26-.85-11.04-3.63-.22-.16-.27-.48-.11-.7.16-.22.47-.27.7-.11,9.2,6.75,19.12,1.49,19.22,1.44.24-.13.55-.04.68.2.13.24.04.55-.2.68-.06.04-3.99,2.12-9.24,2.12Z"/>
  <path class="cls-3" d="m39.04,93.09H6.55c-.7,0-1.37-.11-2-.32,6.95-26.22,26.61-33.09,26.61-33.09l7.87,33.41Z"/>
</svg>